<!-- <svg xmlns="http://www.w3.org/2000/svg" viewBox="0 0 1000 100" fill="#8256CE"><rect fill="#2D3040" width="100%" height="100%"/><path d="M0 0v4c154 96 190 17.9 300 17.9 92 0 92 78.1 200 78.1s108-78.2 200-78.2c110 0 146 78.2 300-17.8V0H0Z"></path></svg> -->

<svg xmlns="http://www.w3.org/2000/svg" viewBox="0 0 1000 100" fill="#8256CE"><rect fill="#2D3040" width="100%" height="100%"/><path d="M1000 100C500 100 500 64 0 64V0h1000v100Z" opacity=".5"></path><path d="M1000 100C500 100 500 34 0 34V0h1000v100Z" opacity=".5"></path><path d="M1000 100C500 100 500 4 0 4V0h1000v100Z"></path></svg>
